<svg width="60" height="18" viewBox="0 0 60 18" fill="none" xmlns="http://www.w3.org/2000/svg">
<path d="M15.0938 9C15.0938 10.7448 14.763 12.2292 14.1016 13.4531C13.4453 14.6771 12.5495 15.612 11.4141 16.2578C10.2839 16.8984 9.01302 17.2187 7.60156 17.2187C6.17969 17.2187 4.90365 16.8958 3.77344 16.25C2.64323 15.6042 1.75 14.6693 1.09375 13.4453C0.4375 12.2214 0.109375 10.7396 0.109375 9C0.109375 7.25521 0.4375 5.77083 1.09375 4.54688C1.75 3.32292 2.64323 2.39062 3.77344 1.75C4.90365 1.10417 6.17969 0.781249 7.60156 0.781249C9.01302 0.781249 10.2839 1.10417 11.4141 1.75C12.5495 2.39062 13.4453 3.32292 14.1016 4.54688C14.763 5.77083 15.0938 7.25521 15.0938 9ZM11.6641 9C11.6641 7.86979 11.4948 6.91667 11.1562 6.14062C10.8229 5.36458 10.3516 4.77604 9.74219 4.375C9.13281 3.97396 8.41927 3.77344 7.60156 3.77344C6.78385 3.77344 6.07031 3.97396 5.46094 4.375C4.85156 4.77604 4.3776 5.36458 4.03906 6.14062C3.70573 6.91667 3.53906 7.86979 3.53906 9C3.53906 10.1302 3.70573 11.0833 4.03906 11.8594C4.3776 12.6354 4.85156 13.224 5.46094 13.625C6.07031 14.026 6.78385 14.2266 7.60156 14.2266C8.41927 14.2266 9.13281 14.026 9.74219 13.625C10.3516 13.224 10.8229 12.6354 11.1562 11.8594C11.4948 11.0833 11.6641 10.1302 11.6641 9ZM30.9824 1V17H28.0605L21.0996 6.92969H20.9824V17H17.5996V1H20.5684L27.4746 11.0625H27.6152V1H30.9824ZM33.7773 17V1H44.5586V3.78906H37.1602V7.60156H44.0039V10.3906H37.1602V14.2109H44.5898V17H33.7773ZM46.6387 3.78906V1H59.7793V3.78906H54.8809V17H51.5371V3.78906H46.6387Z" fill="#21005D"/>
</svg>
