<svg width="25" height="24" viewBox="0 0 25 24" fill="none" xmlns="http://www.w3.org/2000/svg">
<path d="M18.6665 2V4M6.6665 2V4" stroke="#79747E" stroke-width="1.5" stroke-linecap="round" stroke-linejoin="round"/>
<path d="M3.1665 12.2432C3.1665 7.88594 3.1665 5.70728 4.41862 4.35364C5.67074 3 7.68599 3 11.7165 3H13.6165C17.647 3 19.6623 3 20.9144 4.35364C22.1665 5.70728 22.1665 7.88594 22.1665 12.2432V12.7568C22.1665 17.1141 22.1665 19.2927 20.9144 20.6464C19.6623 22 17.647 22 13.6165 22H11.7165C7.68599 22 5.67074 22 4.41862 20.6464C3.1665 19.2927 3.1665 17.1141 3.1665 12.7568V12.2432Z" stroke="#79747E" stroke-width="1.5" stroke-linecap="round" stroke-linejoin="round"/>
<path d="M3.6665 8H21.6665" stroke="#79747E" stroke-width="1.5" stroke-linecap="round" stroke-linejoin="round"/>
</svg>
