<svg width="30" height="41" viewBox="0 0 30 41" fill="none" xmlns="http://www.w3.org/2000/svg">
<path d="M20.5 38.8333L19.7373 39.9773C19.9444 40.1153 20.1851 40.1946 20.4336 40.2066C20.6822 40.2186 20.9294 40.1629 21.1488 40.0455C21.3682 39.9281 21.5516 39.7533 21.6795 39.5398C21.8074 39.3263 21.875 39.0822 21.875 38.8333H20.5ZM15 35.1666L15.7627 34.0226C15.5368 33.8721 15.2714 33.7917 15 33.7917C14.7286 33.7917 14.4632 33.8721 14.2373 34.0226L15 35.1666ZM9.50001 38.8333H8.12501C8.12502 39.0822 8.19258 39.3263 8.32048 39.5398C8.44837 39.7533 8.6318 39.9281 8.85122 40.0455C9.07064 40.1629 9.31781 40.2186 9.56638 40.2066C9.81495 40.1946 10.0556 40.1153 10.2627 39.9773L9.50001 38.8333ZM21.2627 37.6893L15.7627 34.0226L14.2373 36.3106L19.7373 39.9773L21.2627 37.6893ZM14.2373 34.0226L8.73734 37.6893L10.2627 39.9773L15.7627 36.3106L14.2373 34.0226ZM16.7453 4.50596L16.8223 4.59763L18.9178 2.81563L18.839 2.72396L16.7453 4.50596ZM21.0665 6.3558L21.1857 6.3448L20.9657 3.60396L20.8465 3.61496L21.0665 6.3558ZM23.6552 8.81246L23.6442 8.93346L26.385 9.15346L26.396 9.0343L23.6552 8.81246ZM25.4023 13.1758L25.494 13.2546L27.276 11.161L27.1843 11.0821L25.4023 13.1758ZM25.494 16.7453L25.4023 16.8223L27.1843 18.9178L27.276 18.839L25.494 16.7453ZM23.6442 21.0665L23.6552 21.1856L26.396 20.9656L26.385 20.8465L23.6442 21.0665ZM21.1875 23.6551L21.0665 23.6441L20.8465 26.385L20.9657 26.396L21.1875 23.6551ZM16.8242 25.4023L16.7453 25.494L18.839 27.276L18.9178 27.1843L16.8242 25.4023ZM13.2547 25.494L13.1758 25.4023L11.0822 27.1843L11.161 27.276L13.2547 25.494ZM8.93351 23.6441L8.81434 23.6533L9.03434 26.396L9.15351 26.3868L8.93351 23.6441ZM6.34484 21.1875L6.35584 21.0665L3.61501 20.8465L3.60401 20.9656L6.34484 21.1875ZM4.59767 16.8241L4.50601 16.7453L2.72401 18.839L2.81567 18.9178L4.59767 16.8241ZM4.50601 13.2546L4.59767 13.1758L2.81567 11.0821L2.72401 11.161L4.50601 13.2546ZM6.35584 8.93346L6.34484 8.8143L3.60401 9.0343L3.61501 9.15346L6.35584 8.93346ZM8.81251 6.3448L8.93351 6.3558L9.15351 3.61496L9.03434 3.60396L8.81251 6.3448ZM13.1758 4.59763L13.2547 4.50596L11.161 2.72396L11.0822 2.81563L13.1758 4.59763ZM8.93351 6.3558C9.72978 6.41965 10.5298 6.29337 11.2677 5.98737C12.0056 5.68138 12.6603 5.20442 13.1777 4.5958L11.0822 2.81563C10.847 3.09208 10.5495 3.30871 10.2142 3.44768C9.87884 3.58665 9.51531 3.64399 9.15351 3.61496L8.93351 6.3558ZM6.34484 8.8143C6.31853 8.48348 6.36439 8.14906 6.47925 7.8377C6.5941 7.52634 6.77521 7.24365 7.01005 7.00916C7.24488 6.77467 7.52785 6.59398 7.83938 6.47959C8.1509 6.3652 8.48356 6.31983 8.81434 6.34663L9.03434 3.6058C8.30633 3.54713 7.57426 3.64734 6.8888 3.8995C6.20333 4.15165 5.58084 4.54973 5.06439 5.06618C4.54794 5.58263 4.14986 6.20512 3.89771 6.89059C3.64555 7.57605 3.54534 8.30812 3.60401 9.03613L6.34484 8.8143ZM4.59767 13.1758C5.2057 12.6584 5.68215 12.004 5.98781 11.2664C6.29348 10.5289 6.41961 9.72929 6.35584 8.93346L3.61501 9.15346C3.67367 9.8868 3.37667 10.6055 2.81567 11.0821L4.59767 13.1758ZM4.50601 16.7453C4.25317 16.5302 4.0501 16.2627 3.91084 15.9613C3.77157 15.66 3.69945 15.3319 3.69945 15C3.69945 14.668 3.77157 14.34 3.91084 14.0386C4.0501 13.7373 4.25317 13.4698 4.50601 13.2546L2.72401 11.161C2.16802 11.6343 1.72148 12.2227 1.41526 12.8855C1.10904 13.5484 0.950439 14.2698 0.950439 15C0.950439 15.7301 1.10904 16.4516 1.41526 17.1144C1.72148 17.7772 2.16802 18.3657 2.72401 18.839L4.50601 16.7453ZM6.35584 21.0665C6.41969 20.2702 6.29341 19.4701 5.98742 18.7322C5.68142 17.9943 5.20446 17.3397 4.59584 16.8223L2.81567 18.9178C3.37667 19.3945 3.67367 20.1131 3.61501 20.8465L6.35584 21.0665ZM8.81251 23.6551C8.48154 23.6817 8.14875 23.6361 7.83716 23.5213C7.52558 23.4066 7.24265 23.2255 7.00796 22.9907C6.77326 22.7558 6.5924 22.4727 6.47791 22.1611C6.36341 21.8494 6.31801 21.5166 6.34484 21.1856L3.60401 20.9656C3.54534 21.6936 3.64555 22.4257 3.89771 23.1112C4.14986 23.7966 4.54794 24.4191 5.06439 24.9356C5.58084 25.452 6.20333 25.8501 6.8888 26.1023C7.57426 26.3544 8.30633 26.4546 9.03434 26.396L8.81251 23.6551ZM16.7453 25.494C16.5302 25.7468 16.2627 25.9499 15.9613 26.0891C15.66 26.2284 15.332 26.3005 15 26.3005C14.668 26.3005 14.34 26.2284 14.0387 26.0891C13.7373 25.9499 13.4698 25.7468 13.2547 25.494L11.161 27.276C11.6343 27.8319 12.2227 28.2785 12.8856 28.5847C13.5484 28.8909 14.2698 29.0495 15 29.0495C15.7302 29.0495 16.4516 28.8909 17.1144 28.5847C17.7773 28.2785 18.3657 27.8319 18.839 27.276L16.7453 25.494ZM23.6552 21.1856C23.6818 21.5166 23.6361 21.8494 23.5214 22.161C23.4067 22.4726 23.2256 22.7555 22.9907 22.9902C22.7558 23.2249 22.4728 23.4057 22.1611 23.5202C21.8494 23.6347 21.5166 23.6801 21.1857 23.6533L20.9657 26.396C21.6937 26.4546 22.4257 26.3544 23.1112 26.1023C23.7967 25.8501 24.4192 25.452 24.9356 24.9356C25.4521 24.4191 25.8502 23.7966 26.1023 23.1112C26.3545 22.4257 26.4547 21.6936 26.396 20.9656L23.6552 21.1856ZM25.4023 16.8223C24.7941 17.3399 24.3174 17.9946 24.0118 18.7325C23.7061 19.4704 23.5801 20.2703 23.6442 21.0665L26.385 20.8465C26.3263 20.1131 26.6233 19.3945 27.1843 18.9178L25.4023 16.8223ZM25.494 13.2546C25.7468 13.4698 25.9499 13.7373 26.0892 14.0386C26.2284 14.34 26.3006 14.668 26.3006 15C26.3006 15.3319 26.2284 15.66 26.0892 15.9613C25.9499 16.2627 25.7468 16.5302 25.494 16.7453L27.276 18.839C27.832 18.3657 28.2785 17.7772 28.5848 17.1144C28.891 16.4516 29.0496 15.7301 29.0496 15C29.0496 14.2698 28.891 13.5484 28.5848 12.8855C28.2785 12.2227 27.832 11.6343 27.276 11.161L25.494 13.2546ZM23.6442 8.93346C23.5803 9.72974 23.7066 10.5298 24.0126 11.2677C24.3186 12.0056 24.7956 12.6602 25.4042 13.1776L27.1843 11.0821C26.9079 10.8469 26.6913 10.5494 26.5523 10.2141C26.4133 9.8788 26.356 9.51527 26.385 9.15346L23.6442 8.93346ZM21.1875 6.3448C21.5185 6.31821 21.8513 6.36386 22.1628 6.47859C22.4744 6.59332 22.7574 6.77438 22.9921 7.00925C23.2268 7.24412 23.4076 7.52719 23.5221 7.83886C23.6366 8.15052 23.682 8.48152 23.6552 8.81246L26.396 9.0343C26.4547 8.30628 26.3545 7.57422 26.1023 6.88875C25.8502 6.20329 25.4521 5.58079 24.9356 5.06434C24.4192 4.54789 23.7967 4.14982 23.1112 3.89766C22.4257 3.64551 21.6937 3.5453 20.9657 3.60396L21.1875 6.3448ZM16.8223 4.59763C17.3398 5.20565 17.996 5.68211 18.7335 5.98777C19.4711 6.29343 20.2707 6.41957 21.0665 6.3558L20.8465 3.61496C20.4847 3.64399 20.1212 3.58665 19.7859 3.44768C19.4505 3.30871 19.153 3.09208 18.9178 2.81563L16.8223 4.59763ZM18.8408 2.72396C18.3675 2.16735 17.7789 1.72026 17.1157 1.41365C16.4525 1.10704 15.7306 0.948242 15 0.948242C14.2694 0.948242 13.5475 1.10704 12.8843 1.41365C12.2211 1.72026 11.6325 2.16735 11.1592 2.72396L13.2547 4.50596C13.4698 4.25313 13.7373 4.05006 14.0387 3.91079C14.34 3.77153 14.668 3.6994 15 3.6994C15.332 3.6994 15.66 3.77153 15.9613 3.91079C16.2627 4.05006 16.5302 4.25313 16.7453 4.50596L18.8408 2.72396ZM13.1758 25.4023C12.727 24.8749 12.1744 24.4457 11.5524 24.1413C10.9304 23.8369 10.2523 23.6639 9.56051 23.6331L9.43951 26.3813C10.0702 26.4088 10.6678 26.6966 11.0822 27.1843L13.1758 25.4023ZM9.56051 23.6331C9.35148 23.6238 9.14208 23.6275 8.93351 23.6441L9.15351 26.385C9.24865 26.3773 9.3442 26.3761 9.43951 26.3813L9.56051 23.6331ZM10.875 38.8333V25.0063H8.12501V38.8333H10.875ZM21.0683 23.6441C20.8592 23.6274 20.6491 23.6238 20.4395 23.6331L20.5605 26.3813C20.6558 26.3761 20.7514 26.3773 20.8465 26.385L21.0683 23.6441ZM20.4395 23.6331C19.7474 23.6637 19.069 23.8365 18.4466 24.1409C17.8243 24.4453 17.2732 24.8747 16.8242 25.4023L18.9178 27.1843C19.1219 26.9449 19.373 26.75 19.6556 26.6119C19.9382 26.4737 20.2462 26.3952 20.5605 26.3813L20.4395 23.6331ZM19.125 25.0081V38.8333H21.875V25.0063L19.125 25.0081Z" fill="#79747E"/>
<path d="M18.6666 13.1667L13.1666 18.6667L11.3333 16.8334" stroke="#79747E" stroke-width="3" stroke-linecap="round" stroke-linejoin="round"/>
</svg>
