<svg width="28" height="36" viewBox="0 0 28 36" fill="none" xmlns="http://www.w3.org/2000/svg">
<path d="M0.5 0.75H27.5M0.5 35.25H27.5M4.25 35.25V26.25L8.534 23.679C9.51475 23.0906 10.3264 22.2583 10.89 21.2631C11.4535 20.2679 11.7497 19.1437 11.7497 18C11.7497 16.8563 11.4535 15.7321 10.89 14.7369C10.3264 13.7417 9.51475 12.9094 8.534 12.321L4.25 9.75V0.75M23.75 0.75V9.75L19.466 12.321C18.4856 12.9096 17.6743 13.7421 17.111 14.7372C16.5478 15.7324 16.2517 16.8565 16.2517 18C16.2517 19.1435 16.5478 20.2676 17.111 21.2628C17.6743 22.2579 18.4856 23.0904 19.466 23.679L23.75 26.25V35.25" stroke="#79747E" stroke-width="3"/>
</svg>
