<svg width="36" height="36" viewBox="0 0 36 36" fill="none" xmlns="http://www.w3.org/2000/svg">
<path d="M27 3V6M9 3V6" stroke="#79747E" stroke-width="3" stroke-linecap="round" stroke-linejoin="round"/>
<path d="M3.75 18.3648C3.75 11.8289 3.75 8.56092 5.62818 6.53046C7.50636 4.5 10.5292 4.5 16.575 4.5H19.425C25.4707 4.5 28.4937 4.5 30.3719 6.53046C32.25 8.56092 32.25 11.8289 32.25 18.3648V19.1352C32.25 25.6711 32.25 28.9391 30.3719 30.9696C28.4937 33 25.4707 33 19.425 33H16.575C10.5292 33 7.50636 33 5.62818 30.9696C3.75 28.9391 3.75 25.6711 3.75 19.1352V18.3648Z" stroke="#79747E" stroke-width="3" stroke-linecap="round" stroke-linejoin="round"/>
<path d="M4.5 12H31.5" stroke="#79747E" stroke-width="3" stroke-linecap="round" stroke-linejoin="round"/>
</svg>
