<svg width="48" height="49" viewBox="0 0 48 49" fill="none" xmlns="http://www.w3.org/2000/svg">
<rect width="38" height="38" transform="translate(5.21875 5.88574)" fill="white"/>
<path d="M41.8 4.88574H6.2C5.61652 4.88574 5.05695 5.11753 4.64437 5.53011C4.23179 5.94269 4 6.50227 4 7.08574V42.6857C4 42.9747 4.0569 43.2607 4.16747 43.5276C4.27803 43.7946 4.44008 44.0371 4.64437 44.2414C4.84865 44.4457 5.09118 44.6077 5.3581 44.7183C5.62501 44.8288 5.91109 44.8857 6.2 44.8857H25.36V29.3857H20.16V23.3857H25.36V18.8857C25.2523 17.8293 25.377 16.762 25.7254 15.7588C26.0739 14.7556 26.6375 13.8408 27.3769 13.0786C28.1163 12.3163 29.0135 11.725 30.0057 11.3462C30.9978 10.9674 32.0607 10.8102 33.12 10.8857C34.6767 10.8762 36.2326 10.9563 37.78 11.1257V16.5257H34.6C32.08 16.5257 31.6 17.7257 31.6 19.4657V23.3257H37.6L36.82 29.3257H31.6V44.8857H41.8C42.0889 44.8857 42.375 44.8288 42.6419 44.7183C42.9088 44.6077 43.1513 44.4457 43.3556 44.2414C43.5599 44.0371 43.722 43.7946 43.8325 43.5276C43.9431 43.2607 44 42.9747 44 42.6857V7.08574C44 6.79683 43.9431 6.51076 43.8325 6.24384C43.722 5.97692 43.5599 5.7344 43.3556 5.53011C43.1513 5.32582 42.9088 5.16377 42.6419 5.05321C42.375 4.94265 42.0889 4.88574 41.8 4.88574Z" fill="#2C2C2C"/>
</svg>
