<svg width="112" height="73" viewBox="0 0 112 73" fill="none" xmlns="http://www.w3.org/2000/svg">
<path d="M30.9422 45.3417C29.3582 45.3417 27.9742 45.0697 26.7902 44.5257C25.6222 43.9657 24.6542 43.2377 23.8862 42.3417C23.1182 41.4297 22.5422 40.4457 22.1582 39.3897C21.7902 38.3337 21.6062 37.3177 21.6062 36.3417V35.8137C21.6062 34.7257 21.7982 33.6537 22.1822 32.5977C22.5822 31.5257 23.1742 30.5577 23.9582 29.6937C24.7422 28.8297 25.7182 28.1417 26.8862 27.6297C28.0542 27.1017 29.4062 26.8377 30.9422 26.8377C32.4782 26.8377 33.8302 27.1017 34.9982 27.6297C36.1662 28.1417 37.1422 28.8297 37.9262 29.6937C38.7102 30.5577 39.3022 31.5257 39.7022 32.5977C40.1022 33.6537 40.3022 34.7257 40.3022 35.8137V36.3417C40.3022 37.3177 40.1102 38.3337 39.7262 39.3897C39.3422 40.4457 38.7662 41.4297 37.9982 42.3417C37.2302 43.2377 36.2542 43.9657 35.0702 44.5257C33.9022 45.0697 32.5262 45.3417 30.9422 45.3417ZM30.9422 41.6697C31.7742 41.6697 32.5182 41.5257 33.1742 41.2377C33.8462 40.9497 34.4142 40.5497 34.8782 40.0377C35.3582 39.5257 35.7182 38.9337 35.9582 38.2617C36.1982 37.5897 36.3182 36.8697 36.3182 36.1017C36.3182 35.2857 36.1902 34.5417 35.9342 33.8697C35.6942 33.1817 35.3342 32.5897 34.8542 32.0937C34.3902 31.5817 33.8302 31.1897 33.1742 30.9177C32.5182 30.6457 31.7742 30.5097 30.9422 30.5097C30.1102 30.5097 29.3662 30.6457 28.7102 30.9177C28.0542 31.1897 27.4862 31.5817 27.0062 32.0937C26.5422 32.5897 26.1902 33.1817 25.9502 33.8697C25.7102 34.5417 25.5902 35.2857 25.5902 36.1017C25.5902 36.8697 25.7102 37.5897 25.9502 38.2617C26.1902 38.9337 26.5422 39.5257 27.0062 40.0377C27.4862 40.5497 28.0542 40.9497 28.7102 41.2377C29.3662 41.5257 30.1102 41.6697 30.9422 41.6697ZM43.2844 44.8857V27.3657H49.7404L56.3404 41.6937H57.1564L56.6764 42.1257V27.3657H60.3724V44.8857H53.8684L47.2684 30.5577H46.4524L46.9324 30.1257V44.8857H43.2844ZM64.3078 44.8857V27.3657H68.1478V44.8857H64.3078ZM67.6678 44.8857V41.6217H75.3238V44.8857H67.6678ZM67.6678 37.6137V34.3497H74.7718V37.6137H67.6678ZM67.6678 30.6297V27.3657H75.1558V30.6297H67.6678ZM82.0378 44.8857V30.3177H85.9738V44.8857H82.0378ZM77.1178 30.7977V27.3657H90.9178V30.7977H77.1178Z" fill="#8333D0"/>
</svg>
