<svg width="929" height="162" viewBox="0 0 929 162" fill="none" xmlns="http://www.w3.org/2000/svg">
<path d="M44.1133 62L59.5373 15.28H76.4973L92.4973 62H81.6173L68.6893 22.512L72.0173 23.856H63.7613L67.2173 22.512L54.6093 62H44.1133ZM55.8253 50.416L59.0253 41.712H77.3293L80.5933 50.416H55.8253ZM113.197 63.216C110.168 63.216 107.523 62.7253 105.261 61.744C103.043 60.72 101.187 59.3547 99.6933 57.648C98.1999 55.9413 97.0906 54.0213 96.3653 51.888C95.6399 49.712 95.2773 47.472 95.2773 45.168V43.952C95.2773 41.5627 95.6613 39.28 96.4293 37.104C97.1973 34.8853 98.3279 32.9227 99.8213 31.216C101.315 29.5093 103.171 28.1653 105.389 27.184C107.651 26.2027 110.232 25.712 113.133 25.712C116.291 25.712 119.085 26.3307 121.517 27.568C123.949 28.7627 125.891 30.448 127.341 32.624C128.792 34.8 129.603 37.296 129.773 40.112H119.725C119.555 38.5333 118.915 37.2107 117.805 36.144C116.739 35.0347 115.181 34.48 113.133 34.48C111.427 34.48 109.997 34.9067 108.845 35.76C107.736 36.6133 106.904 37.7867 106.349 39.28C105.795 40.7733 105.517 42.544 105.517 44.592C105.517 46.4693 105.773 48.176 106.285 49.712C106.797 51.2053 107.608 52.3787 108.717 53.232C109.869 54.0427 111.363 54.448 113.197 54.448C114.563 54.448 115.715 54.2133 116.653 53.744C117.635 53.232 118.403 52.5493 118.957 51.696C119.555 50.8 119.917 49.776 120.045 48.624H130.029C129.901 51.5253 129.091 54.0853 127.597 56.304C126.104 58.48 124.12 60.1867 121.645 61.424C119.171 62.6187 116.355 63.216 113.197 63.216ZM152.322 63.216C149.293 63.216 146.648 62.7253 144.386 61.744C142.168 60.72 140.312 59.3547 138.818 57.648C137.325 55.9413 136.216 54.0213 135.49 51.888C134.765 49.712 134.402 47.472 134.402 45.168V43.952C134.402 41.5627 134.786 39.28 135.554 37.104C136.322 34.8853 137.453 32.9227 138.946 31.216C140.44 29.5093 142.296 28.1653 144.514 27.184C146.776 26.2027 149.357 25.712 152.258 25.712C155.416 25.712 158.21 26.3307 160.642 27.568C163.074 28.7627 165.016 30.448 166.466 32.624C167.917 34.8 168.728 37.296 168.898 40.112H158.85C158.68 38.5333 158.04 37.2107 156.93 36.144C155.864 35.0347 154.306 34.48 152.258 34.48C150.552 34.48 149.122 34.9067 147.97 35.76C146.861 36.6133 146.029 37.7867 145.474 39.28C144.92 40.7733 144.642 42.544 144.642 44.592C144.642 46.4693 144.898 48.176 145.41 49.712C145.922 51.2053 146.733 52.3787 147.842 53.232C148.994 54.0427 150.488 54.448 152.322 54.448C153.688 54.448 154.84 54.2133 155.778 53.744C156.76 53.232 157.528 52.5493 158.082 51.696C158.68 50.8 159.042 49.776 159.17 48.624H169.154C169.026 51.5253 168.216 54.0853 166.722 56.304C165.229 58.48 163.245 60.1867 160.77 61.424C158.296 62.6187 155.48 63.216 152.322 63.216ZM191.767 63.216C188.781 63.216 186.135 62.704 183.831 61.68C181.57 60.656 179.671 59.2907 178.135 57.584C176.642 55.8347 175.49 53.8933 174.679 51.76C173.911 49.584 173.527 47.3653 173.527 45.104V43.824C173.527 41.4773 173.911 39.2373 174.679 37.104C175.49 34.928 176.642 32.9867 178.135 31.28C179.629 29.5733 181.485 28.2293 183.703 27.248C185.965 26.224 188.525 25.712 191.383 25.712C195.138 25.712 198.295 26.5653 200.855 28.272C203.458 29.936 205.442 32.1333 206.807 34.864C208.173 37.552 208.855 40.496 208.855 43.696V47.152H177.815V41.328H202.647L199.319 44.016C199.319 41.9253 199.021 40.1333 198.423 38.64C197.826 37.1467 196.93 36.016 195.735 35.248C194.583 34.4373 193.133 34.032 191.383 34.032C189.591 34.032 188.077 34.4373 186.839 35.248C185.602 36.0587 184.663 37.2533 184.023 38.832C183.383 40.368 183.063 42.2667 183.063 44.528C183.063 46.6187 183.362 48.4533 183.959 50.032C184.557 51.568 185.495 52.7627 186.775 53.616C188.055 54.4693 189.719 54.896 191.767 54.896C193.645 54.896 195.181 54.5333 196.375 53.808C197.57 53.0827 198.381 52.1867 198.807 51.12H208.215C207.703 53.4667 206.701 55.5573 205.207 57.392C203.714 59.2267 201.837 60.656 199.575 61.68C197.314 62.704 194.711 63.216 191.767 63.216ZM228.953 63.088C223.961 63.088 220.057 62.064 217.241 60.016C214.425 57.968 212.931 55.088 212.761 51.376H221.849C222.019 52.4853 222.681 53.488 223.833 54.384C225.027 55.2373 226.798 55.664 229.145 55.664C230.937 55.664 232.409 55.3653 233.561 54.768C234.755 54.128 235.353 53.232 235.353 52.08C235.353 51.056 234.905 50.2453 234.009 49.648C233.113 49.008 231.513 48.56 229.209 48.304L226.457 48.048C222.233 47.6213 219.054 46.448 216.921 44.528C214.83 42.608 213.785 40.1547 213.785 37.168C213.785 34.6933 214.403 32.624 215.641 30.96C216.878 29.296 218.585 28.0373 220.761 27.184C222.979 26.3307 225.497 25.904 228.313 25.904C232.835 25.904 236.483 26.9067 239.257 28.912C242.03 30.8747 243.481 33.7333 243.609 37.488H234.521C234.35 36.336 233.753 35.376 232.729 34.608C231.705 33.7973 230.19 33.392 228.185 33.392C226.606 33.392 225.347 33.6907 224.409 34.288C223.47 34.8853 223.001 35.696 223.001 36.72C223.001 37.7013 223.406 38.448 224.217 38.96C225.027 39.472 226.35 39.8347 228.185 40.048L230.937 40.304C235.246 40.7733 238.595 41.968 240.985 43.888C243.374 45.808 244.569 48.3893 244.569 51.632C244.569 53.9787 243.929 56.0267 242.649 57.776C241.369 59.4827 239.555 60.8053 237.209 61.744C234.862 62.64 232.11 63.088 228.953 63.088ZM264.515 63.088C259.523 63.088 255.619 62.064 252.803 60.016C249.987 57.968 248.494 55.088 248.323 51.376H257.411C257.582 52.4853 258.243 53.488 259.395 54.384C260.59 55.2373 262.361 55.664 264.707 55.664C266.499 55.664 267.971 55.3653 269.123 54.768C270.318 54.128 270.915 53.232 270.915 52.08C270.915 51.056 270.467 50.2453 269.571 49.648C268.675 49.008 267.075 48.56 264.771 48.304L262.019 48.048C257.795 47.6213 254.617 46.448 252.483 44.528C250.393 42.608 249.347 40.1547 249.347 37.168C249.347 34.6933 249.966 32.624 251.203 30.96C252.441 29.296 254.147 28.0373 256.323 27.184C258.542 26.3307 261.059 25.904 263.875 25.904C268.398 25.904 272.046 26.9067 274.819 28.912C277.593 30.8747 279.043 33.7333 279.171 37.488H270.083C269.913 36.336 269.315 35.376 268.291 34.608C267.267 33.7973 265.753 33.392 263.747 33.392C262.169 33.392 260.91 33.6907 259.971 34.288C259.033 34.8853 258.563 35.696 258.563 36.72C258.563 37.7013 258.969 38.448 259.779 38.96C260.59 39.472 261.913 39.8347 263.747 40.048L266.499 40.304C270.809 40.7733 274.158 41.968 276.547 43.888C278.937 45.808 280.131 48.3893 280.131 51.632C280.131 53.9787 279.491 56.0267 278.211 57.776C276.931 59.4827 275.118 60.8053 272.771 61.744C270.425 62.64 267.673 63.088 264.515 63.088ZM288.43 62V26.928H298.67V62H288.43ZM283.758 34.48V26.928H298.67V34.48H283.758ZM292.398 23.472C290.478 23.472 289.048 22.9813 288.11 22C287.214 20.976 286.766 19.696 286.766 18.16C286.766 16.5813 287.214 15.3013 288.11 14.32C289.048 13.296 290.478 12.784 292.398 12.784C294.318 12.784 295.726 13.296 296.622 14.32C297.56 15.3013 298.03 16.5813 298.03 18.16C298.03 19.696 297.56 20.976 296.622 22C295.726 22.9813 294.318 23.472 292.398 23.472ZM329.709 63.152C326.85 63.152 324.333 62.5547 322.157 61.36C319.981 60.1227 318.274 58.352 317.037 56.048C315.799 53.744 315.138 50.928 315.053 47.6H316.269V62H308.141V15.28H318.381V39.024L315.949 42.096C316.077 38.5547 316.738 35.5893 317.933 33.2C319.17 30.768 320.855 28.9547 322.989 27.76C325.122 26.5227 327.554 25.904 330.285 25.904C332.674 25.904 334.829 26.352 336.749 27.248C338.711 28.1013 340.375 29.3387 341.741 30.96C343.106 32.5387 344.151 34.416 344.877 36.592C345.645 38.768 346.029 41.136 346.029 43.696V45.104C346.029 47.664 345.645 50.032 344.877 52.208C344.151 54.384 343.063 56.304 341.613 57.968C340.205 59.5893 338.498 60.8693 336.493 61.808C334.487 62.704 332.226 63.152 329.709 63.152ZM327.021 54.576C328.77 54.576 330.285 54.1493 331.565 53.296C332.887 52.4427 333.911 51.248 334.637 49.712C335.362 48.1333 335.725 46.3627 335.725 44.4C335.725 42.3947 335.362 40.6453 334.637 39.152C333.911 37.6587 332.887 36.5067 331.565 35.696C330.285 34.8427 328.77 34.416 327.021 34.416C325.485 34.416 324.034 34.7787 322.669 35.504C321.303 36.2293 320.194 37.2747 319.341 38.64C318.53 39.9627 318.125 41.584 318.125 43.504V45.872C318.125 47.7067 318.551 49.2853 319.405 50.608C320.301 51.888 321.431 52.8693 322.797 53.552C324.162 54.2347 325.57 54.576 327.021 54.576ZM353.589 62V15.28H363.893V62H353.589ZM349.429 22.832V15.28H363.893V22.832H349.429ZM389.392 63.216C386.406 63.216 383.76 62.704 381.456 61.68C379.195 60.656 377.296 59.2907 375.76 57.584C374.267 55.8347 373.115 53.8933 372.304 51.76C371.536 49.584 371.152 47.3653 371.152 45.104V43.824C371.152 41.4773 371.536 39.2373 372.304 37.104C373.115 34.928 374.267 32.9867 375.76 31.28C377.254 29.5733 379.11 28.2293 381.328 27.248C383.59 26.224 386.15 25.712 389.008 25.712C392.763 25.712 395.92 26.5653 398.48 28.272C401.083 29.936 403.067 32.1333 404.432 34.864C405.798 37.552 406.48 40.496 406.48 43.696V47.152H375.44V41.328H400.272L396.944 44.016C396.944 41.9253 396.646 40.1333 396.048 38.64C395.451 37.1467 394.555 36.016 393.36 35.248C392.208 34.4373 390.758 34.032 389.008 34.032C387.216 34.032 385.702 34.4373 384.464 35.248C383.227 36.0587 382.288 37.2533 381.648 38.832C381.008 40.368 380.688 42.2667 380.688 44.528C380.688 46.6187 380.987 48.4533 381.584 50.032C382.182 51.568 383.12 52.7627 384.4 53.616C385.68 54.4693 387.344 54.896 389.392 54.896C391.27 54.896 392.806 54.5333 394 53.808C395.195 53.0827 396.006 52.1867 396.432 51.12H405.84C405.328 53.4667 404.326 55.5573 402.832 57.392C401.339 59.2267 399.462 60.656 397.2 61.68C394.939 62.704 392.336 63.216 389.392 63.216ZM436.559 62V23.152H447.055V62H436.559ZM423.439 24.432V15.28H460.239V24.432H423.439ZM477.892 63.216C474.906 63.216 472.26 62.704 469.956 61.68C467.695 60.656 465.796 59.2907 464.26 57.584C462.767 55.8347 461.615 53.8933 460.804 51.76C460.036 49.584 459.652 47.3653 459.652 45.104V43.824C459.652 41.4773 460.036 39.2373 460.804 37.104C461.615 34.928 462.767 32.9867 464.26 31.28C465.754 29.5733 467.61 28.2293 469.828 27.248C472.09 26.224 474.65 25.712 477.508 25.712C481.263 25.712 484.42 26.5653 486.98 28.272C489.583 29.936 491.567 32.1333 492.932 34.864C494.298 37.552 494.98 40.496 494.98 43.696V47.152H463.94V41.328H488.772L485.444 44.016C485.444 41.9253 485.146 40.1333 484.548 38.64C483.951 37.1467 483.055 36.016 481.86 35.248C480.708 34.4373 479.258 34.032 477.508 34.032C475.716 34.032 474.202 34.4373 472.964 35.248C471.727 36.0587 470.788 37.2533 470.148 38.832C469.508 40.368 469.188 42.2667 469.188 44.528C469.188 46.6187 469.487 48.4533 470.084 50.032C470.682 51.568 471.62 52.7627 472.9 53.616C474.18 54.4693 475.844 54.896 477.892 54.896C479.77 54.896 481.306 54.5333 482.5 53.808C483.695 53.0827 484.506 52.1867 484.932 51.12H494.34C493.828 53.4667 492.826 55.5573 491.332 57.392C489.839 59.2267 487.962 60.656 485.7 61.68C483.439 62.704 480.836 63.216 477.892 63.216ZM517.51 63.216C514.48 63.216 511.835 62.7253 509.574 61.744C507.355 60.72 505.499 59.3547 504.006 57.648C502.512 55.9413 501.403 54.0213 500.678 51.888C499.952 49.712 499.59 47.472 499.59 45.168V43.952C499.59 41.5627 499.974 39.28 500.742 37.104C501.51 34.8853 502.64 32.9227 504.134 31.216C505.627 29.5093 507.483 28.1653 509.702 27.184C511.963 26.2027 514.544 25.712 517.446 25.712C520.603 25.712 523.398 26.3307 525.83 27.568C528.262 28.7627 530.203 30.448 531.654 32.624C533.104 34.8 533.915 37.296 534.086 40.112H524.038C523.867 38.5333 523.227 37.2107 522.118 36.144C521.051 35.0347 519.494 34.48 517.446 34.48C515.739 34.48 514.31 34.9067 513.158 35.76C512.048 36.6133 511.216 37.7867 510.662 39.28C510.107 40.7733 509.83 42.544 509.83 44.592C509.83 46.4693 510.086 48.176 510.598 49.712C511.11 51.2053 511.92 52.3787 513.03 53.232C514.182 54.0427 515.675 54.448 517.51 54.448C518.875 54.448 520.027 54.2133 520.966 53.744C521.947 53.232 522.715 52.5493 523.27 51.696C523.867 50.8 524.23 49.776 524.358 48.624H534.342C534.214 51.5253 533.403 54.0853 531.91 56.304C530.416 58.48 528.432 60.1867 525.958 61.424C523.483 62.6187 520.667 63.216 517.51 63.216ZM540.891 62V15.28H551.131V42.224H549.595C549.595 38.6827 550.043 35.696 550.939 33.264C551.835 30.832 553.157 28.9973 554.907 27.76C556.656 26.48 558.853 25.84 561.499 25.84H561.947C565.829 25.84 568.795 27.2267 570.843 30C572.891 32.7307 573.915 36.7413 573.915 42.032V62H563.675V41.392C563.675 39.472 563.099 37.936 561.947 36.784C560.837 35.5893 559.365 34.992 557.531 34.992C555.611 34.992 554.053 35.6107 552.859 36.848C551.707 38.0853 551.131 39.728 551.131 41.776V62H540.891ZM166.029 143V96.28H180.493L191.181 122.52H192.397L202.957 96.28H217.677V143H207.309V103.128L208.781 103.256L196.429 133.528H186.445L174.029 103.256L175.629 103.128V143H166.029ZM248.762 143V132.632H247.034V121.368C247.034 119.576 246.608 118.232 245.754 117.336C244.901 116.44 243.536 115.992 241.658 115.992C240.72 115.992 239.482 116.013 237.946 116.056C236.41 116.099 234.832 116.163 233.21 116.248C231.589 116.333 230.117 116.419 228.794 116.504V107.864C229.776 107.779 230.928 107.693 232.25 107.608C233.573 107.523 234.938 107.459 236.346 107.416C237.754 107.373 239.077 107.352 240.314 107.352C243.898 107.352 246.906 107.864 249.338 108.888C251.813 109.912 253.69 111.469 254.97 113.56C256.25 115.608 256.89 118.253 256.89 121.496V143H248.762ZM237.562 143.896C235.045 143.896 232.826 143.448 230.906 142.552C229.029 141.656 227.557 140.376 226.49 138.712C225.424 137.005 224.89 134.979 224.89 132.632C224.89 130.072 225.552 127.981 226.874 126.36C228.197 124.696 230.053 123.48 232.442 122.712C234.832 121.901 237.584 121.496 240.698 121.496H248.186V127.192H240.634C238.842 127.192 237.456 127.64 236.474 128.536C235.536 129.389 235.066 130.563 235.066 132.056C235.066 133.464 235.536 134.616 236.474 135.512C237.456 136.365 238.842 136.792 240.634 136.792C241.786 136.792 242.81 136.6 243.706 136.216C244.645 135.789 245.413 135.085 246.01 134.104C246.608 133.123 246.949 131.757 247.034 130.008L249.466 132.568C249.253 135 248.656 137.048 247.674 138.712C246.736 140.376 245.413 141.656 243.706 142.552C242.042 143.448 239.994 143.896 237.562 143.896ZM280.042 144.152C277.568 144.152 275.306 143.704 273.258 142.808C271.253 141.912 269.504 140.675 268.01 139.096C266.517 137.475 265.365 135.576 264.554 133.4C263.786 131.224 263.402 128.877 263.402 126.36V124.888C263.402 122.371 263.765 120.024 264.49 117.848C265.258 115.672 266.346 113.773 267.754 112.152C269.205 110.488 270.933 109.208 272.938 108.312C274.944 107.373 277.184 106.904 279.658 106.904C282.474 106.904 284.906 107.523 286.954 108.76C289.002 109.955 290.602 111.747 291.754 114.136C292.906 116.483 293.546 119.384 293.674 122.84L290.986 120.344V96.28H301.29V143H293.162V128.472H294.57C294.442 131.8 293.738 134.637 292.458 136.984C291.221 139.331 289.536 141.123 287.402 142.36C285.269 143.555 282.816 144.152 280.042 144.152ZM282.602 135.576C284.181 135.576 285.61 135.235 286.89 134.552C288.213 133.827 289.258 132.781 290.026 131.416C290.837 130.051 291.242 128.408 291.242 126.488V124.12C291.242 122.243 290.837 120.664 290.026 119.384C289.216 118.104 288.149 117.123 286.826 116.44C285.504 115.757 284.074 115.416 282.538 115.416C280.832 115.416 279.296 115.864 277.93 116.76C276.608 117.613 275.562 118.808 274.794 120.344C274.026 121.837 273.642 123.587 273.642 125.592C273.642 127.64 274.026 129.411 274.794 130.904C275.562 132.397 276.629 133.549 277.994 134.36C279.36 135.171 280.896 135.576 282.602 135.576ZM326.642 144.216C323.656 144.216 321.01 143.704 318.706 142.68C316.445 141.656 314.546 140.291 313.01 138.584C311.517 136.835 310.365 134.893 309.554 132.76C308.786 130.584 308.402 128.365 308.402 126.104V124.824C308.402 122.477 308.786 120.237 309.554 118.104C310.365 115.928 311.517 113.987 313.01 112.28C314.504 110.573 316.36 109.229 318.578 108.248C320.84 107.224 323.4 106.712 326.258 106.712C330.013 106.712 333.17 107.565 335.73 109.272C338.333 110.936 340.317 113.133 341.682 115.864C343.048 118.552 343.73 121.496 343.73 124.696V128.152H312.69V122.328H337.522L334.194 125.016C334.194 122.925 333.896 121.133 333.298 119.64C332.701 118.147 331.805 117.016 330.61 116.248C329.458 115.437 328.008 115.032 326.258 115.032C324.466 115.032 322.952 115.437 321.714 116.248C320.477 117.059 319.538 118.253 318.898 119.832C318.258 121.368 317.938 123.267 317.938 125.528C317.938 127.619 318.237 129.453 318.834 131.032C319.432 132.568 320.37 133.763 321.65 134.616C322.93 135.469 324.594 135.896 326.642 135.896C328.52 135.896 330.056 135.533 331.25 134.808C332.445 134.083 333.256 133.187 333.682 132.12H343.09C342.578 134.467 341.576 136.557 340.082 138.392C338.589 140.227 336.712 141.656 334.45 142.68C332.189 143.704 329.586 144.216 326.642 144.216ZM364.529 143V96.28H374.769V143H364.529ZM373.489 143V134.296H393.905V143H373.489ZM373.489 123.608V114.904H392.433V123.608H373.489ZM373.489 104.984V96.28H393.457V104.984H373.489ZM423.137 143V132.632H421.409V121.368C421.409 119.576 420.983 118.232 420.129 117.336C419.276 116.44 417.911 115.992 416.033 115.992C415.095 115.992 413.857 116.013 412.321 116.056C410.785 116.099 409.207 116.163 407.585 116.248C405.964 116.333 404.492 116.419 403.169 116.504V107.864C404.151 107.779 405.303 107.693 406.625 107.608C407.948 107.523 409.313 107.459 410.721 107.416C412.129 107.373 413.452 107.352 414.689 107.352C418.273 107.352 421.281 107.864 423.713 108.888C426.188 109.912 428.065 111.469 429.345 113.56C430.625 115.608 431.265 118.253 431.265 121.496V143H423.137ZM411.937 143.896C409.42 143.896 407.201 143.448 405.281 142.552C403.404 141.656 401.932 140.376 400.865 138.712C399.799 137.005 399.265 134.979 399.265 132.632C399.265 130.072 399.927 127.981 401.249 126.36C402.572 124.696 404.428 123.48 406.817 122.712C409.207 121.901 411.959 121.496 415.073 121.496H422.561V127.192H415.009C413.217 127.192 411.831 127.64 410.849 128.536C409.911 129.389 409.441 130.563 409.441 132.056C409.441 133.464 409.911 134.616 410.849 135.512C411.831 136.365 413.217 136.792 415.009 136.792C416.161 136.792 417.185 136.6 418.081 136.216C419.02 135.789 419.788 135.085 420.385 134.104C420.983 133.123 421.324 131.757 421.409 130.008L423.841 132.568C423.628 135 423.031 137.048 422.049 138.712C421.111 140.376 419.788 141.656 418.081 142.552C416.417 143.448 414.369 143.896 411.937 143.896ZM453.265 144.088C448.273 144.088 444.369 143.064 441.553 141.016C438.737 138.968 437.244 136.088 437.073 132.376H446.161C446.332 133.485 446.993 134.488 448.145 135.384C449.34 136.237 451.111 136.664 453.457 136.664C455.249 136.664 456.721 136.365 457.873 135.768C459.068 135.128 459.665 134.232 459.665 133.08C459.665 132.056 459.217 131.245 458.321 130.648C457.425 130.008 455.825 129.56 453.521 129.304L450.769 129.048C446.545 128.621 443.367 127.448 441.233 125.528C439.143 123.608 438.097 121.155 438.097 118.168C438.097 115.693 438.716 113.624 439.953 111.96C441.191 110.296 442.897 109.037 445.073 108.184C447.292 107.331 449.809 106.904 452.625 106.904C457.148 106.904 460.796 107.907 463.569 109.912C466.343 111.875 467.793 114.733 467.921 118.488H458.833C458.663 117.336 458.065 116.376 457.041 115.608C456.017 114.797 454.503 114.392 452.497 114.392C450.919 114.392 449.66 114.691 448.721 115.288C447.783 115.885 447.313 116.696 447.313 117.72C447.313 118.701 447.719 119.448 448.529 119.96C449.34 120.472 450.663 120.835 452.497 121.048L455.249 121.304C459.559 121.773 462.908 122.968 465.297 124.888C467.687 126.808 468.881 129.389 468.881 132.632C468.881 134.979 468.241 137.027 466.961 138.776C465.681 140.483 463.868 141.805 461.521 142.744C459.175 143.64 456.423 144.088 453.265 144.088ZM474.757 156.888V148.184H482.053C483.162 148.184 484.101 148.035 484.869 147.736C485.637 147.48 486.255 147.032 486.725 146.392C487.194 145.752 487.578 144.877 487.877 143.768L496.517 107.928H506.245L496.453 145.816C495.77 148.547 494.81 150.723 493.573 152.344C492.378 153.965 490.757 155.117 488.709 155.8C486.703 156.525 484.143 156.888 481.029 156.888H474.757ZM485.765 142.232V134.232H493.189V142.232H485.765ZM481.541 142.232L470.789 107.928H481.093L491.269 142.232H481.541ZM525.654 143V96.28H536.15V143H525.654ZM534.87 124.184V115.48H552.918V124.184H534.87ZM534.87 104.984V96.28H553.686V104.984H534.87ZM577.104 144.216C574.032 144.216 571.301 143.747 568.912 142.808C566.522 141.827 564.496 140.504 562.832 138.84C561.21 137.176 559.973 135.277 559.12 133.144C558.266 130.968 557.84 128.685 557.84 126.296V124.824C557.84 122.392 558.266 120.088 559.12 117.912C560.016 115.693 561.296 113.752 562.96 112.088C564.666 110.424 566.714 109.123 569.104 108.184C571.493 107.203 574.16 106.712 577.104 106.712C580.133 106.712 582.821 107.203 585.168 108.184C587.557 109.123 589.584 110.424 591.248 112.088C592.912 113.752 594.192 115.693 595.088 117.912C595.984 120.088 596.432 122.392 596.432 124.824V126.296C596.432 128.685 596.005 130.968 595.152 133.144C594.298 135.277 593.04 137.176 591.376 138.84C589.754 140.504 587.749 141.827 585.36 142.808C582.97 143.747 580.218 144.216 577.104 144.216ZM577.104 135.576C579.109 135.576 580.773 135.149 582.096 134.296C583.418 133.443 584.421 132.248 585.104 130.712C585.829 129.176 586.192 127.469 586.192 125.592C586.192 123.587 585.829 121.837 585.104 120.344C584.378 118.808 583.333 117.592 581.968 116.696C580.645 115.8 579.024 115.352 577.104 115.352C575.226 115.352 573.605 115.8 572.24 116.696C570.874 117.592 569.829 118.808 569.104 120.344C568.421 121.837 568.08 123.587 568.08 125.592C568.08 127.469 568.421 129.176 569.104 130.712C569.786 132.248 570.81 133.443 572.176 134.296C573.541 135.149 575.184 135.576 577.104 135.576ZM603.578 143V107.928H611.706V122.968H611.514C611.514 118.019 612.56 114.2 614.65 111.512C616.784 108.824 619.856 107.48 623.866 107.48H625.21V116.312H622.65C619.834 116.312 617.658 117.08 616.122 118.616C614.586 120.109 613.818 122.285 613.818 125.144V143H603.578ZM640.113 143L655.537 96.28H672.497L688.497 143H677.617L664.689 103.512L668.017 104.856H659.761L663.217 103.512L650.609 143H640.113ZM651.825 131.416L655.025 122.712H673.329L676.593 131.416H651.825ZM693.964 143V96.28H704.268V143H693.964ZM689.804 103.832V96.28H704.268V103.832H689.804ZM714.151 143V96.28H724.455V143H714.151ZM709.991 103.832V96.28H724.455V103.832H709.991Z" fill="#1D192B"/>
<g clip-path="url(#clip0_2254_5373)">
<path d="M596.748 62V15.28H606.988V62H596.748ZM605.708 62V53.296H626.124V62H605.708ZM605.708 42.608V33.904H624.652V42.608H605.708ZM605.708 23.984V15.28H625.676V23.984H605.708ZM647.761 63.152C645.286 63.152 643.025 62.704 640.977 61.808C638.972 60.912 637.222 59.6747 635.729 58.096C634.236 56.4747 633.084 54.576 632.273 52.4C631.505 50.224 631.121 47.8773 631.121 45.36V43.888C631.121 41.3707 631.484 39.024 632.209 36.848C632.977 34.672 634.065 32.7733 635.473 31.152C636.924 29.488 638.652 28.208 640.657 27.312C642.662 26.3733 644.902 25.904 647.377 25.904C650.193 25.904 652.625 26.5227 654.673 27.76C656.721 28.9547 658.321 30.7467 659.473 33.136C660.625 35.4827 661.265 38.384 661.393 41.84L658.705 39.344V15.28H669.009V62H660.881V47.472H662.289C662.161 50.8 661.457 53.6373 660.177 55.984C658.94 58.3307 657.254 60.1227 655.121 61.36C652.988 62.5547 650.534 63.152 647.761 63.152ZM650.321 54.576C651.9 54.576 653.329 54.2347 654.609 53.552C655.932 52.8267 656.977 51.7813 657.745 50.416C658.556 49.0507 658.961 47.408 658.961 45.488V43.12C658.961 41.2427 658.556 39.664 657.745 38.384C656.934 37.104 655.868 36.1227 654.545 35.44C653.222 34.7573 651.793 34.416 650.257 34.416C648.55 34.416 647.014 34.864 645.649 35.76C644.326 36.6133 643.281 37.808 642.513 39.344C641.745 40.8373 641.361 42.5867 641.361 44.592C641.361 46.64 641.745 48.4107 642.513 49.904C643.281 51.3973 644.348 52.5493 645.713 53.36C647.078 54.1707 648.614 54.576 650.321 54.576ZM690.137 63.088C686.084 63.088 682.969 61.7867 680.793 59.184C678.617 56.5387 677.529 52.5707 677.529 47.28V26.928H687.769V47.792C687.769 49.6693 688.302 51.1627 689.369 52.272C690.436 53.3813 691.865 53.936 693.657 53.936C695.492 53.936 696.985 53.36 698.137 52.208C699.289 51.056 699.865 49.4987 699.865 47.536V26.928H710.105V62H701.977V47.216H702.681C702.681 50.7573 702.212 53.7227 701.273 56.112C700.377 58.4587 699.033 60.208 697.241 61.36C695.449 62.512 693.23 63.088 690.585 63.088H690.137ZM735.291 63.216C732.262 63.216 729.616 62.7253 727.355 61.744C725.136 60.72 723.28 59.3547 721.787 57.648C720.294 55.9413 719.184 54.0213 718.459 51.888C717.734 49.712 717.371 47.472 717.371 45.168V43.952C717.371 41.5627 717.755 39.28 718.523 37.104C719.291 34.8853 720.422 32.9227 721.915 31.216C723.408 29.5093 725.264 28.1653 727.483 27.184C729.744 26.2027 732.326 25.712 735.227 25.712C738.384 25.712 741.179 26.3307 743.611 27.568C746.043 28.7627 747.984 30.448 749.435 32.624C750.886 34.8 751.696 37.296 751.867 40.112H741.819C741.648 38.5333 741.008 37.2107 739.899 36.144C738.832 35.0347 737.275 34.48 735.227 34.48C733.52 34.48 732.091 34.9067 730.939 35.76C729.83 36.6133 728.998 37.7867 728.443 39.28C727.888 40.7733 727.611 42.544 727.611 44.592C727.611 46.4693 727.867 48.176 728.379 49.712C728.891 51.2053 729.702 52.3787 730.811 53.232C731.963 54.0427 733.456 54.448 735.291 54.448C736.656 54.448 737.808 54.2133 738.747 53.744C739.728 53.232 740.496 52.5493 741.051 51.696C741.648 50.8 742.011 49.776 742.139 48.624H752.123C751.995 51.5253 751.184 54.0853 749.691 56.304C748.198 58.48 746.214 60.1867 743.739 61.424C741.264 62.6187 738.448 63.216 735.291 63.216ZM779.856 62V51.632H778.128V40.368C778.128 38.576 777.701 37.232 776.848 36.336C775.995 35.44 774.629 34.992 772.752 34.992C771.813 34.992 770.576 35.0133 769.04 35.056C767.504 35.0987 765.925 35.1627 764.304 35.248C762.683 35.3333 761.211 35.4187 759.888 35.504V26.864C760.869 26.7787 762.021 26.6933 763.344 26.608C764.667 26.5227 766.032 26.4587 767.44 26.416C768.848 26.3733 770.171 26.352 771.408 26.352C774.992 26.352 778 26.864 780.432 27.888C782.907 28.912 784.784 30.4693 786.064 32.56C787.344 34.608 787.984 37.2533 787.984 40.496V62H779.856ZM768.656 62.896C766.139 62.896 763.92 62.448 762 61.552C760.123 60.656 758.651 59.376 757.584 57.712C756.517 56.0053 755.984 53.9787 755.984 51.632C755.984 49.072 756.645 46.9813 757.968 45.36C759.291 43.696 761.147 42.48 763.536 41.712C765.925 40.9013 768.677 40.496 771.792 40.496H779.28V46.192H771.728C769.936 46.192 768.549 46.64 767.568 47.536C766.629 48.3893 766.16 49.5627 766.16 51.056C766.16 52.464 766.629 53.616 767.568 54.512C768.549 55.3653 769.936 55.792 771.728 55.792C772.88 55.792 773.904 55.6 774.8 55.216C775.739 54.7893 776.507 54.0853 777.104 53.104C777.701 52.1227 778.043 50.7573 778.128 49.008L780.56 51.568C780.347 54 779.749 56.048 778.768 57.712C777.829 59.376 776.507 60.656 774.8 61.552C773.136 62.448 771.088 62.896 768.656 62.896ZM812.608 62.448C809.067 62.448 806.208 62.0213 804.032 61.168C801.856 60.272 800.256 58.8 799.232 56.752C798.251 54.6613 797.76 51.8453 797.76 48.304V17.456H807.296V48.688C807.296 50.352 807.723 51.632 808.576 52.528C809.472 53.3813 810.731 53.808 812.352 53.808H817.536V62.448H812.608ZM792.448 34.416V26.928H817.536V34.416H792.448ZM826.086 62V26.928H836.326V62H826.086ZM821.414 34.48V26.928H836.326V34.48H821.414ZM830.054 23.472C828.134 23.472 826.705 22.9813 825.766 22C824.87 20.976 824.422 19.696 824.422 18.16C824.422 16.5813 824.87 15.3013 825.766 14.32C826.705 13.296 828.134 12.784 830.054 12.784C831.974 12.784 833.382 13.296 834.278 14.32C835.217 15.3013 835.686 16.5813 835.686 18.16C835.686 19.696 835.217 20.976 834.278 22C833.382 22.9813 831.974 23.472 830.054 23.472ZM862.885 63.216C859.813 63.216 857.082 62.7467 854.693 61.808C852.304 60.8267 850.277 59.504 848.613 57.84C846.992 56.176 845.754 54.2773 844.901 52.144C844.048 49.968 843.621 47.6853 843.621 45.296V43.824C843.621 41.392 844.048 39.088 844.901 36.912C845.797 34.6933 847.077 32.752 848.741 31.088C850.448 29.424 852.496 28.1227 854.885 27.184C857.274 26.2027 859.941 25.712 862.885 25.712C865.914 25.712 868.602 26.2027 870.949 27.184C873.338 28.1227 875.365 29.424 877.029 31.088C878.693 32.752 879.973 34.6933 880.869 36.912C881.765 39.088 882.213 41.392 882.213 43.824V45.296C882.213 47.6853 881.786 49.968 880.933 52.144C880.08 54.2773 878.821 56.176 877.157 57.84C875.536 59.504 873.53 60.8267 871.141 61.808C868.752 62.7467 866 63.216 862.885 63.216ZM862.885 54.576C864.89 54.576 866.554 54.1493 867.877 53.296C869.2 52.4427 870.202 51.248 870.885 49.712C871.61 48.176 871.973 46.4693 871.973 44.592C871.973 42.5867 871.61 40.8373 870.885 39.344C870.16 37.808 869.114 36.592 867.749 35.696C866.426 34.8 864.805 34.352 862.885 34.352C861.008 34.352 859.386 34.8 858.021 35.696C856.656 36.592 855.61 37.808 854.885 39.344C854.202 40.8373 853.861 42.5867 853.861 44.592C853.861 46.4693 854.202 48.176 854.885 49.712C855.568 51.248 856.592 52.4427 857.957 53.296C859.322 54.1493 860.965 54.576 862.885 54.576ZM889.36 62V26.928H897.488V41.968H896.912C896.912 38.384 897.36 35.3973 898.256 33.008C899.194 30.6187 900.602 28.8267 902.48 27.632C904.357 26.4373 906.64 25.84 909.328 25.84H909.776C913.872 25.84 916.986 27.184 919.12 29.872C921.296 32.5173 922.384 36.5493 922.384 41.968V62H912.144V41.392C912.144 39.5147 911.589 37.9787 910.48 36.784C909.37 35.5893 907.877 34.992 906 34.992C904.08 34.992 902.522 35.6107 901.328 36.848C900.176 38.0427 899.6 39.6213 899.6 41.584V62H889.36ZM613.004 144.216C608.78 144.216 605.217 143.555 602.316 142.232C599.415 140.867 597.217 139.032 595.724 136.728C594.231 134.381 593.484 131.693 593.484 128.664H603.66C603.66 129.859 603.98 130.968 604.62 131.992C605.303 133.016 606.327 133.848 607.692 134.488C609.057 135.085 610.828 135.384 613.004 135.384C614.967 135.384 616.609 135.128 617.932 134.616C619.255 134.104 620.257 133.4 620.94 132.504C621.623 131.565 621.964 130.499 621.964 129.304C621.964 127.811 621.324 126.637 620.044 125.784C618.764 124.888 616.695 124.312 613.836 124.056L610.316 123.736C605.665 123.352 601.953 121.901 599.18 119.384C596.407 116.867 595.02 113.539 595.02 109.4C595.02 106.413 595.724 103.832 597.132 101.656C598.583 99.48 600.588 97.816 603.148 96.664C605.708 95.4693 608.737 94.872 612.236 94.872C615.905 94.872 619.041 95.512 621.644 96.792C624.289 98.0293 626.316 99.8 627.724 102.104C629.132 104.365 629.836 107.032 629.836 110.104H619.596C619.596 108.952 619.319 107.907 618.764 106.968C618.209 105.987 617.377 105.197 616.268 104.6C615.201 104.003 613.857 103.704 612.236 103.704C610.7 103.704 609.399 103.96 608.332 104.472C607.308 104.984 606.54 105.688 606.028 106.584C605.516 107.437 605.26 108.376 605.26 109.4C605.26 110.723 605.729 111.875 606.668 112.856C607.607 113.837 609.143 114.413 611.276 114.584L614.86 114.904C618.273 115.203 621.281 115.949 623.884 117.144C626.487 118.296 628.513 119.896 629.964 121.944C631.457 123.949 632.204 126.403 632.204 129.304C632.204 132.291 631.415 134.915 629.836 137.176C628.3 139.395 626.103 141.123 623.244 142.36C620.385 143.597 616.972 144.216 613.004 144.216ZM655.948 144.216C652.876 144.216 650.145 143.747 647.756 142.808C645.366 141.827 643.34 140.504 641.676 138.84C640.054 137.176 638.817 135.277 637.964 133.144C637.11 130.968 636.684 128.685 636.684 126.296V124.824C636.684 122.392 637.11 120.088 637.964 117.912C638.86 115.693 640.14 113.752 641.804 112.088C643.51 110.424 645.558 109.123 647.948 108.184C650.337 107.203 653.004 106.712 655.948 106.712C658.977 106.712 661.665 107.203 664.012 108.184C666.401 109.123 668.428 110.424 670.092 112.088C671.756 113.752 673.036 115.693 673.932 117.912C674.828 120.088 675.276 122.392 675.276 124.824V126.296C675.276 128.685 674.849 130.968 673.996 133.144C673.142 135.277 671.884 137.176 670.22 138.84C668.598 140.504 666.593 141.827 664.204 142.808C661.814 143.747 659.062 144.216 655.948 144.216ZM655.948 135.576C657.953 135.576 659.617 135.149 660.94 134.296C662.262 133.443 663.265 132.248 663.948 130.712C664.673 129.176 665.036 127.469 665.036 125.592C665.036 123.587 664.673 121.837 663.948 120.344C663.222 118.808 662.177 117.592 660.812 116.696C659.489 115.8 657.868 115.352 655.948 115.352C654.07 115.352 652.449 115.8 651.083 116.696C649.718 117.592 648.673 118.808 647.948 120.344C647.265 121.837 646.924 123.587 646.924 125.592C646.924 127.469 647.265 129.176 647.948 130.712C648.63 132.248 649.654 133.443 651.02 134.296C652.385 135.149 654.028 135.576 655.948 135.576ZM682.87 143V96.28H693.174V143H682.87ZM678.71 103.832V96.28H693.174V103.832H678.71ZM714.45 144.088C710.396 144.088 707.282 142.787 705.106 140.184C702.93 137.539 701.842 133.571 701.842 128.28V107.928H712.082V128.792C712.082 130.669 712.615 132.163 713.682 133.272C714.748 134.381 716.178 134.936 717.97 134.936C719.804 134.936 721.298 134.36 722.45 133.208C723.602 132.056 724.178 130.499 724.178 128.536V107.928H734.418V143H726.29V128.216H726.994C726.994 131.757 726.524 134.723 725.586 137.112C724.69 139.459 723.346 141.208 721.554 142.36C719.762 143.512 717.543 144.088 714.898 144.088H714.45ZM759.796 143.448C756.254 143.448 753.396 143.021 751.22 142.168C749.044 141.272 747.444 139.8 746.42 137.752C745.438 135.661 744.948 132.845 744.948 129.304V98.456H754.484V129.688C754.484 131.352 754.91 132.632 755.764 133.528C756.66 134.381 757.918 134.808 759.54 134.808H764.724V143.448H759.796ZM739.636 115.416V107.928H764.724V115.416H739.636ZM773.274 143V107.928H783.514V143H773.274ZM768.602 115.48V107.928H783.514V115.48H768.602ZM777.242 104.472C775.322 104.472 773.892 103.981 772.954 103C772.058 101.976 771.61 100.696 771.61 99.16C771.61 97.5813 772.058 96.3013 772.954 95.32C773.892 94.296 775.322 93.784 777.242 93.784C779.162 93.784 780.57 94.296 781.466 95.32C782.404 96.3013 782.874 97.5813 782.874 99.16C782.874 100.696 782.404 101.976 781.466 103C780.57 103.981 779.162 104.472 777.242 104.472ZM810.073 144.216C807.001 144.216 804.27 143.747 801.881 142.808C799.491 141.827 797.465 140.504 795.801 138.84C794.179 137.176 792.942 135.277 792.089 133.144C791.235 130.968 790.809 128.685 790.809 126.296V124.824C790.809 122.392 791.235 120.088 792.089 117.912C792.985 115.693 794.265 113.752 795.929 112.088C797.635 110.424 799.683 109.123 802.073 108.184C804.462 107.203 807.129 106.712 810.073 106.712C813.102 106.712 815.79 107.203 818.137 108.184C820.526 109.123 822.553 110.424 824.217 112.088C825.881 113.752 827.161 115.693 828.057 117.912C828.953 120.088 829.401 122.392 829.401 124.824V126.296C829.401 128.685 828.974 130.968 828.121 133.144C827.267 135.277 826.009 137.176 824.345 138.84C822.723 140.504 820.718 141.827 818.329 142.808C815.939 143.747 813.187 144.216 810.073 144.216ZM810.073 135.576C812.078 135.576 813.742 135.149 815.065 134.296C816.387 133.443 817.39 132.248 818.073 130.712C818.798 129.176 819.161 127.469 819.161 125.592C819.161 123.587 818.798 121.837 818.073 120.344C817.347 118.808 816.302 117.592 814.937 116.696C813.614 115.8 811.993 115.352 810.073 115.352C808.195 115.352 806.574 115.8 805.208 116.696C803.843 117.592 802.798 118.808 802.073 120.344C801.39 121.837 801.049 123.587 801.049 125.592C801.049 127.469 801.39 129.176 802.073 130.712C802.755 132.248 803.779 133.443 805.145 134.296C806.51 135.149 808.153 135.576 810.073 135.576ZM836.547 143V107.928H844.675V122.968H844.099C844.099 119.384 844.547 116.397 845.443 114.008C846.382 111.619 847.79 109.827 849.667 108.632C851.544 107.437 853.827 106.84 856.515 106.84H856.963C861.059 106.84 864.174 108.184 866.307 110.872C868.483 113.517 869.571 117.549 869.571 122.968V143H859.331V122.392C859.331 120.515 858.776 118.979 857.667 117.784C856.558 116.589 855.064 115.992 853.187 115.992C851.267 115.992 849.71 116.611 848.515 117.848C847.363 119.043 846.787 120.621 846.787 122.584V143H836.547Z" fill="#21005D"/>
</g>
<path d="M366.5 150.5C493.605 180.091 611.417 124.201 725.268 158.278" stroke="#8333D0" stroke-width="3" stroke-linecap="round"/>
<defs>
<clipPath id="clip0_2254_5373">
<rect width="337" height="71" fill="white" transform="translate(591.5)"/>
</clipPath>
</defs>
</svg>
