<svg width="48" height="49" viewBox="0 0 48 49" fill="none" xmlns="http://www.w3.org/2000/svg">
<rect width="38" height="38" transform="translate(5.09375 5.88574)" fill="white"/>
<path fill-rule="evenodd" clip-rule="evenodd" d="M6 4.88574C4.89543 4.88574 4 5.78117 4 6.88574V42.8857C4 43.9903 4.89543 44.8857 6 44.8857H41.6C42.7046 44.8857 43.6 43.9903 43.6 42.8857V6.88574C43.6 5.78117 42.7046 4.88574 41.6 4.88574H6ZM29.5646 15.7686C29.8277 15.5928 30.137 15.499 30.4535 15.499C30.8778 15.499 31.2848 15.6676 31.5849 15.9676C31.8849 16.2677 32.0535 16.6746 32.0535 17.099C32.0535 17.4154 31.9597 17.7248 31.7838 17.9879C31.608 18.251 31.3582 18.4561 31.0658 18.5772C30.7734 18.6983 30.4517 18.73 30.1414 18.6683C29.831 18.6065 29.5459 18.4541 29.3221 18.2304C29.0984 18.0066 28.946 17.7215 28.8842 17.4111C28.8225 17.1008 28.8542 16.7791 28.9753 16.4867C29.0964 16.1943 29.3015 15.9445 29.5646 15.7686ZM35.9735 15.4857C36.3537 16.5249 36.5609 17.6194 36.5868 18.7257C36.6668 20.139 36.6668 20.5923 36.6668 24.219C36.6668 26.4518 36.6365 27.4818 36.6132 28.2735C36.5986 28.7677 36.5868 29.1691 36.5868 29.7123C36.5609 30.8186 36.3537 31.9131 35.9735 32.9523C35.6379 33.8433 35.1098 34.6491 34.4268 35.3123C33.7666 35.9958 32.9596 36.5201 32.0668 36.8457C31.0304 37.2374 29.9346 37.4494 28.8268 37.4723C27.4135 37.5523 26.9602 37.5523 23.3335 37.5523C19.7068 37.5523 19.2535 37.5523 17.8402 37.4723C16.7324 37.4494 15.6366 37.2374 14.6002 36.8457C13.7091 36.5168 12.9027 35.9929 12.2402 35.3123C11.5567 34.6521 11.0324 33.8451 10.7068 32.9523C10.315 31.9159 10.1031 30.8201 10.0802 29.7123C10.0002 28.299 10.0002 27.8457 10.0002 24.219C10.0002 20.5923 10.0002 20.139 10.0802 18.7257C10.1031 17.6179 10.315 16.5221 10.7068 15.4857C11.0324 14.5929 11.5567 13.7859 12.2402 13.1257C12.9027 12.4451 13.7091 11.9212 14.6002 11.5923C15.6366 11.2005 16.7324 10.9886 17.8402 10.9657C19.2535 10.8857 19.7068 10.8857 23.3335 10.8857C26.9602 10.8857 27.4135 10.8857 28.8268 10.9657C29.9346 10.9886 31.0304 11.2005 32.0668 11.5923C32.9596 11.9179 33.7666 12.4422 34.4268 13.1257C35.1068 13.7914 35.6345 14.5965 35.9735 15.4857ZM33.7335 32.0323C34.0238 31.2373 34.1771 30.3987 34.1868 29.5523C34.2535 28.219 34.2668 27.7257 34.2668 24.219C34.2668 20.7123 34.2535 20.219 34.1868 18.8857C34.1832 18.0214 34.0298 17.1642 33.7335 16.3523C33.5118 15.796 33.1704 15.2952 32.7335 14.8857C32.2966 14.4095 31.7527 14.0439 31.1468 13.819C30.3518 13.5287 29.5132 13.3754 28.6668 13.3657C27.3335 13.2857 26.8402 13.2857 23.3335 13.2857C21.1644 13.2857 20.1482 13.3163 19.3731 13.3396C18.8951 13.354 18.5087 13.3657 18.0002 13.3657C17.1362 13.3724 16.2796 13.5257 15.4668 13.819C14.9059 14.0631 14.4052 14.4272 14.0002 14.8857C13.5418 15.2879 13.1816 15.7895 12.9468 16.3523C12.6441 17.1629 12.4861 18.0204 12.4802 18.8857C12.4002 20.219 12.4002 20.7123 12.4002 24.219C12.4002 26.3881 12.4308 27.4042 12.4541 28.1794C12.4685 28.6574 12.4802 29.0438 12.4802 29.5523C12.5074 30.4216 12.688 31.2792 13.0135 32.0857C13.22 32.6659 13.5576 33.1907 14.0002 33.619C14.4153 34.0494 14.9145 34.3898 15.4668 34.619C16.2996 34.9001 17.1747 35.0354 18.0535 35.019C19.3868 35.099 19.8801 35.099 23.3866 35.099H23.3868C26.8935 35.099 27.3868 35.0857 28.7202 35.019C29.5665 35.0093 30.4051 34.856 31.2002 34.5657C31.7778 34.3476 32.301 34.0063 32.7335 33.5657C33.1787 33.1369 33.5206 32.6126 33.7335 32.0323ZM19.537 18.5382C20.6601 17.785 21.9812 17.3816 23.3335 17.379C24.2334 17.3755 25.125 17.5499 25.9572 17.8922C26.7894 18.2346 27.5457 18.738 28.1827 19.3737C28.8196 20.0094 29.3245 20.7647 29.6685 21.5963C30.0124 22.4278 30.1886 23.3191 30.1868 24.219C30.1868 25.5712 29.786 26.8932 29.035 28.0177C28.284 29.1422 27.2165 30.0189 25.9675 30.537C24.7184 31.0551 23.3438 31.1914 22.0173 30.9285C20.6908 30.6657 19.472 30.0156 18.5149 29.0603C17.5578 28.105 16.9053 26.8875 16.6399 25.5616C16.3745 24.2356 16.508 22.8607 17.0237 21.6107C17.5393 20.3606 18.414 19.2914 19.537 18.5382ZM20.8668 27.9107C21.5969 28.3986 22.4553 28.659 23.3335 28.659C23.9166 28.659 24.4939 28.5441 25.0326 28.321C25.5713 28.0979 26.0608 27.7708 26.473 27.3585C26.8853 26.9463 27.2124 26.4568 27.4355 25.9181C27.6587 25.3794 27.7735 24.8021 27.7735 24.219C27.7735 23.3408 27.5131 22.4824 27.0252 21.7523C26.5373 21.0221 25.8439 20.453 25.0326 20.117C24.2213 19.7809 23.3286 19.693 22.4673 19.8643C21.606 20.0356 20.8149 20.4585 20.1939 21.0794C19.573 21.7004 19.1501 22.4915 18.9788 23.3528C18.8075 24.2141 18.8954 25.1068 19.2315 25.9181C19.5675 26.7294 20.1366 27.4228 20.8668 27.9107Z" fill="#2C2C2C"/>
</svg>
