<svg width="36" height="37" viewBox="0 0 36 37" fill="none" xmlns="http://www.w3.org/2000/svg">
<path d="M6.76967 18.5C6.1677 18.4124 5.69004 18.2665 5.26982 18.0239C4.5797 17.6255 4.00663 17.0523 3.60819 16.3622C3 15.3088 3 13.8946 3 11.066C3 8.23751 3 6.82324 3.60819 5.76982C4.00663 5.0797 4.5797 4.50663 5.26982 4.10819C6.32324 3.5 7.73751 3.5 10.566 3.5C13.3946 3.5 14.8088 3.5 15.8622 4.10819C16.5523 4.50663 17.1255 5.0797 17.5239 5.76982C17.7665 6.19004 17.9124 6.6677 18 7.26967" stroke="#79747E" stroke-width="3" stroke-linecap="round"/>
<path d="M14.2825 26C13.6744 25.9126 13.1928 25.7664 12.7695 25.5219C12.0795 25.1237 11.5065 24.5507 11.1081 23.8605C10.5 22.8072 10.5 21.3932 10.5 18.5651C10.5 15.7368 10.5 14.3228 11.1081 13.2695C11.5065 12.5795 12.0795 12.0065 12.7695 11.6081C13.8228 11 15.2368 11 18.0651 11C20.8932 11 22.3072 11 23.3605 11.6081C24.0507 12.0065 24.6237 12.5795 25.0219 13.2695C25.2664 13.6928 25.4126 14.1744 25.5 14.7825" stroke="#79747E" stroke-width="3" stroke-linecap="round"/>
<path d="M18 26C18 23.1962 18 21.7943 18.6029 20.75C18.9978 20.0659 19.5659 19.4978 20.25 19.1029C21.2943 18.5 22.6962 18.5 25.5 18.5C28.3038 18.5 29.7057 18.5 30.75 19.1029C31.4341 19.4978 32.0022 20.0659 32.3972 20.75C33 21.7943 33 23.1962 33 26C33 28.8038 33 30.2057 32.3972 31.25C32.0022 31.9341 31.4341 32.5022 30.75 32.8972C29.7057 33.5 28.3038 33.5 25.5 33.5C22.6962 33.5 21.2943 33.5 20.25 32.8972C19.5659 32.5022 18.9978 31.9341 18.6029 31.25C18 30.2057 18 28.8038 18 26Z" stroke="#79747E" stroke-width="3"/>
</svg>
