<svg width="48" height="49" viewBox="0 0 48 49" fill="none" xmlns="http://www.w3.org/2000/svg">
<rect width="38" height="38" transform="translate(5.09375 5.88574)" fill="white"/>
<path d="M40.9401 4.88553H7.06012C6.67927 4.88024 6.30112 4.95003 5.94725 5.0909C5.59338 5.23177 5.27072 5.44097 4.99771 5.70656C4.7247 5.97214 4.50668 6.2889 4.3561 6.63875C4.20552 6.9886 4.12533 7.36469 4.12012 7.74553V42.0255C4.12533 42.4064 4.20552 42.7825 4.3561 43.1323C4.50668 43.4822 4.7247 43.7989 4.99771 44.0645C5.27072 44.3301 5.59338 44.5393 5.94725 44.6802C6.30112 44.821 6.67927 44.8908 7.06012 44.8855H40.9401C41.321 44.8908 41.6991 44.821 42.053 44.6802C42.4069 44.5393 42.7295 44.3301 43.0025 44.0645C43.2755 43.7989 43.4936 43.4822 43.6441 43.1323C43.7947 42.7825 43.8749 42.4064 43.8801 42.0255V7.74553C43.8749 7.36469 43.7947 6.9886 43.6441 6.63875C43.4936 6.2889 43.2755 5.97214 43.0025 5.70656C42.7295 5.44097 42.4069 5.23177 42.053 5.0909C41.6991 4.95003 41.321 4.88024 40.9401 4.88553ZM16.1801 38.3655H10.1801V20.3655H16.1801V38.3655ZM13.1801 17.8455C12.3526 17.8455 11.5591 17.5168 10.9739 16.9317C10.3888 16.3466 10.0601 15.553 10.0601 14.7255C10.0601 13.8981 10.3888 13.1045 10.9739 12.5194C11.5591 11.9342 12.3526 11.6055 13.1801 11.6055C13.6195 11.5557 14.0645 11.5992 14.4859 11.7333C14.9073 11.8674 15.2956 12.0889 15.6254 12.3835C15.9553 12.678 16.2192 13.0389 16.3999 13.4425C16.5806 13.8461 16.674 14.2833 16.674 14.7255C16.674 15.1677 16.5806 15.605 16.3999 16.0086C16.2192 16.4122 15.9553 16.7731 15.6254 17.0676C15.2956 17.3622 14.9073 17.5837 14.4859 17.7178C14.0645 17.8518 13.6195 17.8954 13.1801 17.8455ZM37.8201 38.3655H31.8201V28.7055C31.8201 26.2855 30.9601 24.7055 28.7801 24.7055C28.1054 24.7105 27.4485 24.9221 26.8978 25.3119C26.3471 25.7017 25.9291 26.2509 25.7001 26.8855C25.5436 27.3556 25.4758 27.8507 25.5001 28.3455V38.3455H19.5001C19.5001 38.3455 19.5001 21.9855 19.5001 20.3455H25.5001V22.8855C26.0452 21.9397 26.8379 21.1606 27.793 20.6319C28.7481 20.1033 29.8293 19.8452 30.9201 19.8855C34.9201 19.8855 37.8201 22.4655 37.8201 28.0055V38.3655Z" fill="#2C2C2C"/>
</svg>
