<svg width="36" height="37" viewBox="0 0 36 37" fill="none" xmlns="http://www.w3.org/2000/svg">
<path d="M24 8C24 6.60218 24 5.90327 24.2283 5.35195C24.5328 4.61687 25.1169 4.03285 25.8519 3.72836C26.4033 3.5 27.1021 3.5 28.5 3.5C29.8979 3.5 30.5967 3.5 31.1481 3.72836C31.8831 4.03285 32.4672 4.61687 32.7717 5.35195C33 5.90327 33 6.60218 33 8V14C33 15.3978 33 16.0967 32.7717 16.6481C32.4672 17.3831 31.8831 17.9672 31.1481 18.2717C30.5967 18.5 29.8979 18.5 28.5 18.5C27.1021 18.5 26.4033 18.5 25.8519 18.2717C25.1169 17.9672 24.5328 17.3831 24.2283 16.6481C24 16.0967 24 15.3978 24 14V8Z" stroke="#79747E" stroke-width="3"/>
<path d="M24 29C24 27.6021 24 26.9033 24.2283 26.3519C24.5328 25.6169 25.1169 25.0328 25.8519 24.7283C26.4033 24.5 27.1021 24.5 28.5 24.5C29.8979 24.5 30.5967 24.5 31.1481 24.7283C31.8831 25.0328 32.4672 25.6169 32.7717 26.3519C33 26.9033 33 27.6021 33 29C33 30.3979 33 31.0967 32.7717 31.6481C32.4672 32.3831 31.8831 32.9672 31.1481 33.2717C30.5967 33.5 29.8979 33.5 28.5 33.5C27.1021 33.5 26.4033 33.5 25.8519 33.2717C25.1169 32.9672 24.5328 32.3831 24.2283 31.6481C24 31.0967 24 30.3979 24 29Z" stroke="#79747E" stroke-width="3"/>
<path d="M3 24.5C3 21.6716 3 20.2574 3.87868 19.3787C4.75735 18.5 6.17157 18.5 9 18.5H12C14.8284 18.5 16.2426 18.5 17.1213 19.3787C18 20.2574 18 21.6716 18 24.5V27.5C18 30.3284 18 31.7426 17.1213 32.6213C16.2426 33.5 14.8284 33.5 12 33.5H9C6.17157 33.5 4.75735 33.5 3.87868 32.6213C3 31.7426 3 30.3284 3 27.5V24.5Z" stroke="#79747E" stroke-width="3"/>
<path d="M3 8C3 6.60218 3 5.90327 3.22836 5.35195C3.53285 4.61687 4.11687 4.03285 4.85195 3.72836C5.40327 3.5 6.10218 3.5 7.5 3.5H13.5C14.8978 3.5 15.5967 3.5 16.1481 3.72836C16.8831 4.03285 17.4672 4.61687 17.7717 5.35195C18 5.90327 18 6.60218 18 8C18 9.39782 18 10.0967 17.7717 10.6481C17.4672 11.3831 16.8831 11.9672 16.1481 12.2716C15.5967 12.5 14.8978 12.5 13.5 12.5H7.5C6.10218 12.5 5.40327 12.5 4.85195 12.2716C4.11687 11.9672 3.53285 11.3831 3.22836 10.6481C3 10.0967 3 9.39782 3 8Z" stroke="#79747E" stroke-width="3"/>
</svg>
