<svg width="48" height="49" viewBox="0 0 48 49" fill="none" xmlns="http://www.w3.org/2000/svg">
<rect width="38" height="38" transform="translate(5 5.88574)" fill="white"/>
<path fill-rule="evenodd" clip-rule="evenodd" d="M6 4.88574C4.89543 4.88574 4 5.78117 4 6.88574V42.8857C4 43.9903 4.89543 44.8857 6 44.8857H41.6C42.7046 44.8857 43.6 43.9903 43.6 42.8857V6.88574C43.6 5.78117 42.7046 4.88574 41.6 4.88574H6ZM34.5816 13.8857H30.9014L24.8371 20.5961L19.5939 13.8857H12L21.0735 25.3711L12.4739 34.8857H16.1563L22.7935 27.5444L28.5941 34.8857H36L26.5415 22.7811L34.5816 13.8857ZM31.649 32.7534H29.6098L16.2976 15.9061H18.4859L31.649 32.7534Z" fill="#2C2C2C"/>
</svg>
