<svg width="36" height="36" viewBox="0 0 36 36" fill="none" xmlns="http://www.w3.org/2000/svg">
<path d="M18 30.75C16.5259 30.75 15.4294 29.2545 13.2363 26.2635L5.23113 14.5959C3.61201 12.3877 2.80246 11.2836 3.04111 9.86489C3.27976 8.44617 4.22631 7.82415 6.11943 6.58013C9.57433 4.30977 13.6437 3 18 3C22.3563 3 26.4256 4.30977 29.8806 6.58013C31.7737 7.82415 32.7202 8.44617 32.9589 9.86489C33.1975 11.2836 32.388 12.3877 30.7689 14.5959L24 24" stroke="#79747E" stroke-width="3" stroke-linecap="round"/>
<path d="M28.5 19.5C22.0306 15.5 13.9694 15.5 7.5 19.5" stroke="#79747E" stroke-width="3"/>
<path d="M31.5 15C23.1822 9 12.8178 9 4.5 15" stroke="#79747E" stroke-width="3"/>
<path d="M24 24C20.1975 22 15.8025 22 12 24" stroke="#79747E" stroke-width="3" stroke-linecap="round"/>
<path d="M21 28.5C21 28.5 22.5 28.5 24 31.5C24 31.5 28.7648 24 33 22.5" stroke="#79747E" stroke-width="1.5" stroke-linecap="round" stroke-linejoin="round"/>
</svg>
